<svg width="29" height="29" viewBox="0 0 29 29" fill="none" xmlns="http://www.w3.org/2000/svg">
<g clip-path="url(#clip0_898_7957)">
<path d="M28.1555 -0.0078125H0.0195312V28.1385H28.1555V-0.0078125Z" fill="url(#paint0_linear_898_7957)"/>
<path d="M11.5076 9.4804L14.7154 6.35171C14.7154 6.35171 14.7159 6.35118 14.7162 6.35065C14.7337 6.33023 15.3364 5.63179 16.2949 5.58008C16.2952 5.58008 16.2957 5.58008 16.296 5.58008H21.4677C21.4818 5.58008 21.4889 5.59705 21.4789 5.60713L13.5413 13.5006C13.5352 13.5067 13.5257 13.5067 13.5193 13.5009L12.3219 12.3816C12.3219 12.3816 11.1017 11.3602 11.5028 9.48836C11.5034 9.48518 11.505 9.48253 11.5073 9.48014L11.5076 9.4804Z" fill="url(#paint1_linear_898_7957)"/>
<path d="M22.9231 22.5659H18.0396C18.0396 22.5659 16.9164 22.546 16.048 21.6026L9.81856 15.3423V22.6054H7.16255C6.13005 22.6054 5.29297 21.7683 5.29297 20.7357V7.45172C5.29297 6.41916 6.13005 5.58203 7.16255 5.58203H9.81856V11.1715L11.5113 9.47865C11.5113 9.47865 11.0634 11.0561 12.3584 12.3512L22.9231 22.5659Z" fill="#F9EFF3"/>
</g>
<defs>
<linearGradient id="paint0_linear_898_7957" x1="1.76056" y1="1.0576" x2="26.7961" y2="26.7984" gradientUnits="userSpaceOnUse">
<stop stop-color="#FF0C00"/>
<stop offset="1" stop-color="#FF9743"/>
</linearGradient>
<linearGradient id="paint1_linear_898_7957" x1="10.1596" y1="13.0681" x2="18.0309" y2="6.80107" gradientUnits="userSpaceOnUse">
<stop stop-color="#F2939D"/>
<stop offset="1" stop-color="white"/>
</linearGradient>
<clipPath id="clip0_898_7957">
<rect width="28.2091" height="28.2091" rx="4.23136" fill="white"/>
</clipPath>
</defs>
</svg>
