<svg width="150" height="29" viewBox="0 0 150 29" fill="none" xmlns="http://www.w3.org/2000/svg">
<g clip-path="url(#clip0_898_7956)">
<path d="M28.1555 -0.0078125H0.0195312V28.1385H28.1555V-0.0078125Z" fill="url(#paint0_linear_898_7956)"/>
<path d="M11.5076 9.4804L14.7154 6.35171C14.7154 6.35171 14.7159 6.35118 14.7162 6.35065C14.7337 6.33023 15.3364 5.63179 16.2949 5.58008C16.2952 5.58008 16.2957 5.58008 16.296 5.58008H21.4677C21.4818 5.58008 21.4889 5.59705 21.4789 5.60713L13.5413 13.5006C13.5352 13.5067 13.5257 13.5067 13.5193 13.5009L12.3219 12.3816C12.3219 12.3816 11.1017 11.3602 11.5028 9.48836C11.5034 9.48518 11.505 9.48253 11.5073 9.48014L11.5076 9.4804Z" fill="url(#paint1_linear_898_7956)"/>
<path d="M22.9231 22.5659H18.0396C18.0396 22.5659 16.9164 22.546 16.048 21.6026L9.81856 15.3423V22.6054H7.16255C6.13005 22.6054 5.29297 21.7683 5.29297 20.7357V7.45172C5.29297 6.41916 6.13005 5.58203 7.16255 5.58203H9.81856V11.1715L11.5113 9.47865C11.5113 9.47865 11.0634 11.0561 12.3584 12.3512L22.9231 22.5659Z" fill="#F9EFF3"/>
</g>
<g clip-path="url(#clip1_898_7956)">
<path d="M42.5231 10.945L42.4258 11.845L42.961 11.164L48.7987 4.57216H53.3716L45.9771 12.5991L53.3959 22.4746H48.9203L43.3988 14.8369L42.5231 15.7125V22.4746H38.9475V4.57216H42.5231V10.945ZM61.9848 4.57216C63.1037 4.57216 64.101 4.7181 64.9766 5.00999C65.8523 5.28566 66.582 5.69106 67.1658 6.22619C67.7658 6.7451 68.2198 7.37753 68.5279 8.12346C68.836 8.85318 68.9901 9.6802 68.9901 10.6045C68.9901 11.3342 68.8766 12.0639 68.6495 12.7937C68.4387 13.5234 68.082 14.1882 67.5793 14.7882C67.0928 15.3882 66.4442 15.8747 65.6334 16.2477C64.8226 16.6044 63.8172 16.7828 62.6172 16.7828H60.0875V22.4746H56.5605V4.57216H61.9848ZM62.5929 13.3774C63.128 13.3774 63.5739 13.2883 63.9307 13.1099C64.2874 12.9315 64.5631 12.7045 64.7577 12.4288C64.9685 12.1531 65.1145 11.8694 65.1955 11.5775C65.2928 11.2694 65.3415 10.9856 65.3415 10.7261C65.3415 10.5315 65.3091 10.2883 65.2442 9.99641C65.1955 9.6883 65.082 9.3802 64.9037 9.0721C64.7253 8.76399 64.4496 8.50454 64.0766 8.29373C63.7199 8.08292 63.2334 7.97752 62.6172 7.97752H60.0875V13.3774H62.5929ZM65.9009 15.5666L70.3279 22.4746H66.2171L61.6929 15.6639L65.9009 15.5666ZM76.8844 15.8585C76.8844 16.426 77.0546 16.9693 77.3952 17.4882C77.7357 18.0071 78.1816 18.4287 78.733 18.753C79.3005 19.0774 79.9167 19.2395 80.5816 19.2395C81.3113 19.2395 81.96 19.0774 82.5275 18.753C83.0951 18.4287 83.541 18.0071 83.8653 17.4882C84.2059 16.9693 84.3761 16.426 84.3761 15.8585V4.57216H87.8545V15.9315C87.8545 17.245 87.5301 18.4125 86.8815 19.4341C86.2329 20.4395 85.3572 21.2341 84.2545 21.8179C83.1518 22.3854 81.9275 22.6692 80.5816 22.6692C79.2519 22.6692 78.0357 22.3854 76.933 21.8179C75.8465 21.2341 74.979 20.4395 74.3303 19.4341C73.6817 18.4125 73.3574 17.245 73.3574 15.9315V4.57216H76.8844V15.8585ZM92.5942 22.4746V3.84244H92.6185L102.567 17.9503L101.059 17.6098L110.983 3.84244H111.032V22.4746H107.505V11.7964L107.724 13.6207L101.667 22.2314H101.618L95.3915 13.6207L95.9996 11.9423V22.4746H92.5942ZM115.051 13.5477C115.051 12.3153 115.286 11.1477 115.757 10.0451C116.227 8.94237 116.875 7.96941 117.702 7.12618C118.546 6.26673 119.519 5.59377 120.621 5.10729C121.724 4.62081 122.908 4.37757 124.173 4.37757C125.421 4.37757 126.597 4.62081 127.7 5.10729C128.802 5.59377 129.775 6.26673 130.618 7.12618C131.478 7.96941 132.143 8.94237 132.613 10.0451C133.1 11.1477 133.343 12.3153 133.343 13.5477C133.343 14.8126 133.1 15.9963 132.613 17.099C132.143 18.2017 131.478 19.1747 130.618 20.0179C129.775 20.8449 128.802 21.4935 127.7 21.9638C126.597 22.4341 125.421 22.6692 124.173 22.6692C122.908 22.6692 121.724 22.4341 120.621 21.9638C119.519 21.4935 118.546 20.8449 117.702 20.0179C116.875 19.1747 116.227 18.2017 115.757 17.099C115.286 15.9963 115.051 14.8126 115.051 13.5477ZM118.7 13.5477C118.7 14.3423 118.838 15.0882 119.113 15.7855C119.405 16.4666 119.802 17.0747 120.305 17.6098C120.824 18.1287 121.416 18.5341 122.081 18.826C122.762 19.1179 123.5 19.2638 124.294 19.2638C125.056 19.2638 125.762 19.1179 126.41 18.826C127.075 18.5341 127.651 18.1287 128.137 17.6098C128.624 17.0747 129.005 16.4666 129.281 15.7855C129.556 15.0882 129.694 14.3423 129.694 13.5477C129.694 12.7369 129.548 11.9829 129.256 11.2856C128.981 10.5883 128.591 9.98019 128.089 9.46128C127.602 8.92615 127.027 8.51265 126.362 8.22076C125.697 7.92887 124.975 7.78293 124.197 7.78293C123.419 7.78293 122.697 7.92887 122.032 8.22076C121.367 8.51265 120.783 8.92615 120.281 9.46128C119.778 9.98019 119.389 10.5883 119.113 11.2856C118.838 11.9829 118.7 12.7369 118.7 13.5477ZM146.905 8.90183C146.224 8.52886 145.527 8.22076 144.813 7.97752C144.116 7.73428 143.459 7.61266 142.843 7.61266C142.081 7.61266 141.481 7.76671 141.043 8.07481C140.605 8.38292 140.386 8.84507 140.386 9.46128C140.386 9.8829 140.548 10.264 140.873 10.6045C141.213 10.9288 141.643 11.2207 142.162 11.4802C142.697 11.7396 143.248 11.9748 143.816 12.1856C144.335 12.3802 144.845 12.6153 145.348 12.891C145.867 13.1504 146.329 13.4828 146.735 13.8882C147.14 14.2774 147.464 14.772 147.708 15.372C147.951 15.9558 148.072 16.6774 148.072 17.5368C148.072 18.4449 147.837 19.2882 147.367 20.0665C146.897 20.8449 146.208 21.4773 145.3 21.9638C144.391 22.4341 143.273 22.6692 141.943 22.6692C141.262 22.6692 140.564 22.6043 139.851 22.4746C139.154 22.3287 138.464 22.1179 137.783 21.8422C137.102 21.5503 136.446 21.1854 135.813 20.7476L137.37 17.999C137.792 18.3071 138.246 18.5828 138.732 18.826C139.235 19.053 139.737 19.2314 140.24 19.3611C140.743 19.4909 141.205 19.5557 141.627 19.5557C142.048 19.5557 142.47 19.499 142.891 19.3855C143.329 19.2557 143.686 19.0449 143.962 18.753C144.254 18.4612 144.4 18.0558 144.4 17.5368C144.4 17.1801 144.278 16.8558 144.035 16.5639C143.808 16.272 143.491 16.0044 143.086 15.7612C142.697 15.518 142.267 15.3071 141.797 15.1288C141.246 14.918 140.678 14.6747 140.094 14.399C139.51 14.1234 138.959 13.7909 138.44 13.4018C137.937 12.9964 137.524 12.5018 137.2 11.918C136.892 11.318 136.737 10.5883 136.737 9.72884C136.737 8.69102 136.965 7.79103 137.419 7.02888C137.889 6.26673 138.546 5.66674 139.389 5.22891C140.232 4.77486 141.205 4.52351 142.308 4.47487C143.751 4.47487 144.918 4.64513 145.81 4.98567C146.718 5.3262 147.529 5.7316 148.243 6.20187L146.905 8.90183Z" fill="currentColor"/>
<mask id="mask0_898_7956" style="mask-type:alpha" maskUnits="userSpaceOnUse" x="56" y="-40" width="90" height="63">
<path d="M101.746 22.8089C101.733 22.8279 101.705 22.8281 101.691 22.8092L56.5287 -39.6813C56.5126 -39.7036 56.5285 -39.7349 56.5561 -39.7349L145.662 -39.7348C145.689 -39.7348 145.705 -39.704 145.689 -39.6816L101.746 22.8089Z" fill="url(#paint2_linear_898_7956)"/>
</mask>
<g mask="url(#mask0_898_7956)">
<path d="M42.5153 10.945L42.418 11.845L42.9531 11.164L48.7909 4.57216H53.3638L45.9693 12.5991L53.3881 22.4746H48.9125L43.391 14.8369L42.5153 15.7125V22.4746H38.9397V4.57216H42.5153V10.945ZM61.977 4.57216C63.0959 4.57216 64.0931 4.7181 64.9688 5.00999C65.8445 5.28566 66.5742 5.69106 67.158 6.22619C67.758 6.7451 68.212 7.37753 68.5201 8.12346C68.8282 8.85318 68.9823 9.6802 68.9823 10.6045C68.9823 11.3342 68.8688 12.0639 68.6417 12.7937C68.4309 13.5234 68.0742 14.1882 67.5715 14.7882C67.085 15.3882 66.4364 15.8747 65.6256 16.2477C64.8148 16.6044 63.8094 16.7828 62.6094 16.7828H60.0797V22.4746H56.5527V4.57216H61.977ZM62.5851 13.3774C63.1202 13.3774 63.5661 13.2883 63.9229 13.1099C64.2796 12.9315 64.5553 12.7045 64.7499 12.4288C64.9607 12.1531 65.1066 11.8694 65.1877 11.5775C65.285 11.2694 65.3337 10.9856 65.3337 10.7261C65.3337 10.5315 65.3012 10.2883 65.2364 9.99641C65.1877 9.6883 65.0742 9.3802 64.8958 9.0721C64.7175 8.76399 64.4418 8.50454 64.0688 8.29373C63.7121 8.08292 63.2256 7.97752 62.6094 7.97752H60.0797V13.3774H62.5851ZM65.8931 15.5666L70.3201 22.4746H66.2093L61.6851 15.6639L65.8931 15.5666ZM76.8765 15.8585C76.8765 16.426 77.0468 16.9693 77.3873 17.4882C77.7279 18.0071 78.1738 18.4287 78.7252 18.753C79.2927 19.0774 79.9089 19.2395 80.5738 19.2395C81.3035 19.2395 81.9521 19.0774 82.5197 18.753C83.0873 18.4287 83.5332 18.0071 83.8575 17.4882C84.1981 16.9693 84.3683 16.426 84.3683 15.8585V4.57216H87.8467V15.9315C87.8467 17.245 87.5223 18.4125 86.8737 19.4341C86.2251 20.4395 85.3494 21.2341 84.2467 21.8179C83.144 22.3854 81.9197 22.6692 80.5738 22.6692C79.2441 22.6692 78.0279 22.3854 76.9252 21.8179C75.8387 21.2341 74.9712 20.4395 74.3225 19.4341C73.6739 18.4125 73.3496 17.245 73.3496 15.9315V4.57216H76.8765V15.8585ZM92.5864 22.4746V3.84244H92.6107L102.559 17.9503L101.051 17.6098L110.975 3.84244H111.024V22.4746H107.497V11.7964L107.716 13.6207L101.659 22.2314H101.611L95.3837 13.6207L95.9918 11.9423V22.4746H92.5864ZM115.043 13.5477C115.043 12.3153 115.278 11.1477 115.749 10.0451C116.219 8.94237 116.868 7.96941 117.695 7.12618C118.538 6.26673 119.511 5.59377 120.614 5.10729C121.716 4.62081 122.9 4.37757 124.165 4.37757C125.413 4.37757 126.589 4.62081 127.692 5.10729C128.794 5.59377 129.767 6.26673 130.611 7.12618C131.47 7.96941 132.135 8.94237 132.605 10.0451C133.092 11.1477 133.335 12.3153 133.335 13.5477C133.335 14.8126 133.092 15.9963 132.605 17.099C132.135 18.2017 131.47 19.1747 130.611 20.0179C129.767 20.8449 128.794 21.4935 127.692 21.9638C126.589 22.4341 125.413 22.6692 124.165 22.6692C122.9 22.6692 121.716 22.4341 120.614 21.9638C119.511 21.4935 118.538 20.8449 117.695 20.0179C116.868 19.1747 116.219 18.2017 115.749 17.099C115.278 15.9963 115.043 14.8126 115.043 13.5477ZM118.692 13.5477C118.692 14.3423 118.83 15.0882 119.105 15.7855C119.397 16.4666 119.795 17.0747 120.297 17.6098C120.816 18.1287 121.408 18.5341 122.073 18.826C122.754 19.1179 123.492 19.2638 124.286 19.2638C125.049 19.2638 125.754 19.1179 126.403 18.826C127.067 18.5341 127.643 18.1287 128.13 17.6098C128.616 17.0747 128.997 16.4666 129.273 15.7855C129.549 15.0882 129.686 14.3423 129.686 13.5477C129.686 12.7369 129.54 11.9829 129.249 11.2856C128.973 10.5883 128.584 9.98019 128.081 9.46128C127.595 8.92615 127.019 8.51265 126.354 8.22076C125.689 7.92887 124.968 7.78293 124.189 7.78293C123.411 7.78293 122.689 7.92887 122.024 8.22076C121.359 8.51265 120.776 8.92615 120.273 9.46128C119.77 9.98019 119.381 10.5883 119.105 11.2856C118.83 11.9829 118.692 12.7369 118.692 13.5477ZM146.897 8.90183C146.216 8.52886 145.519 8.22076 144.805 7.97752C144.108 7.73428 143.451 7.61266 142.835 7.61266C142.073 7.61266 141.473 7.76671 141.035 8.07481C140.597 8.38292 140.378 8.84507 140.378 9.46128C140.378 9.8829 140.54 10.264 140.865 10.6045C141.205 10.9288 141.635 11.2207 142.154 11.4802C142.689 11.7396 143.24 11.9748 143.808 12.1856C144.327 12.3802 144.838 12.6153 145.34 12.891C145.859 13.1504 146.321 13.4828 146.727 13.8882C147.132 14.2774 147.457 14.772 147.7 15.372C147.943 15.9558 148.065 16.6774 148.065 17.5368C148.065 18.4449 147.83 19.2882 147.359 20.0665C146.889 20.8449 146.2 21.4773 145.292 21.9638C144.384 22.4341 143.265 22.6692 141.935 22.6692C141.254 22.6692 140.557 22.6043 139.843 22.4746C139.146 22.3287 138.457 22.1179 137.776 21.8422C137.095 21.5503 136.438 21.1854 135.805 20.7476L137.362 17.999C137.784 18.3071 138.238 18.5828 138.724 18.826C139.227 19.053 139.73 19.2314 140.232 19.3611C140.735 19.4909 141.197 19.5557 141.619 19.5557C142.04 19.5557 142.462 19.499 142.884 19.3855C143.321 19.2557 143.678 19.0449 143.954 18.753C144.246 18.4612 144.392 18.0558 144.392 17.5368C144.392 17.1801 144.27 16.8558 144.027 16.5639C143.8 16.272 143.484 16.0044 143.078 15.7612C142.689 15.518 142.259 15.3071 141.789 15.1288C141.238 14.918 140.67 14.6747 140.086 14.399C139.503 14.1234 138.951 13.7909 138.432 13.4018C137.93 12.9964 137.516 12.5018 137.192 11.918C136.884 11.318 136.73 10.5883 136.73 9.72884C136.73 8.69102 136.957 7.79103 137.411 7.02888C137.881 6.26673 138.538 5.66674 139.381 5.22891C140.224 4.77486 141.197 4.52351 142.3 4.47487C143.743 4.47487 144.911 4.64513 145.803 4.98567C146.711 5.3262 147.521 5.7316 148.235 6.20187L146.897 8.90183Z" fill="url(#paint3_linear_898_7956)"/>
</g>
</g>
<defs>
<linearGradient id="paint0_linear_898_7956" x1="1.76056" y1="1.0576" x2="26.7961" y2="26.7984" gradientUnits="userSpaceOnUse">
<stop stop-color="#FF0C00"/>
<stop offset="1" stop-color="#FF9743"/>
</linearGradient>
<linearGradient id="paint1_linear_898_7956" x1="10.1596" y1="13.0681" x2="18.0309" y2="6.80107" gradientUnits="userSpaceOnUse">
<stop stop-color="#F2939D"/>
<stop offset="1" stop-color="white"/>
</linearGradient>
<linearGradient id="paint2_linear_898_7956" x1="101.193" y1="23.7317" x2="110.758" y2="12.3322" gradientUnits="userSpaceOnUse">
<stop stop-color="#FF0C00"/>
<stop offset="1" stop-color="#FFB048"/>
</linearGradient>
<linearGradient id="paint3_linear_898_7956" x1="101.71" y1="2.47402" x2="106.156" y2="18.8759" gradientUnits="userSpaceOnUse">
<stop stop-color="#FF0C00"/>
<stop offset="1" stop-color="#FF9743"/>
</linearGradient>
<clipPath id="clip0_898_7956">
<rect width="28.2091" height="28.2091" rx="4.23136" fill="white"/>
</clipPath>
<clipPath id="clip1_898_7956">
<rect width="112.836" height="22.6348" fill="white" transform="translate(36.6719 2.78711)"/>
</clipPath>
</defs>
</svg>
